<svg width="171" height="45" viewBox="0 0 171 45" fill="none" xmlns="http://www.w3.org/2000/svg">
<path d="M20.3578 43.9063H12.4362V11.6804H0.498413V3.61689H32.2678V11.6804H20.3578V43.9063ZM44.5934 5.63977C44.5934 6.35154 44.455 7.01648 44.1778 7.63458C43.9195 8.25271 43.5595 8.79589 43.0977 9.26415C42.636 9.7137 42.0914 10.0789 41.4637 10.3599C40.8541 10.6221 40.1987 10.7532 39.4968 10.7532C38.7953 10.7532 38.1305 10.6221 37.5027 10.3599C36.8934 10.0789 36.3579 9.7137 35.8962 9.26415C35.4531 8.79589 35.093 8.25271 34.816 7.63458C34.5575 7.01648 34.4282 6.35154 34.4282 5.63977C34.4282 4.94676 34.5575 4.29118 34.816 3.67309C35.093 3.03623 35.4531 2.49305 35.8962 2.04351C36.3579 1.57525 36.8934 1.21002 37.5027 0.947791C38.1305 0.666841 38.7953 0.526367 39.4968 0.526367C40.1987 0.526367 40.8541 0.666841 41.4637 0.947791C42.0914 1.21002 42.636 1.57525 43.0977 2.04351C43.5595 2.49305 43.9195 3.03623 44.1778 3.67309C44.455 4.29118 44.5934 4.94676 44.5934 5.63977ZM43.2917 43.9063H35.6746V13.8157H43.2917V43.9063ZM75.0056 19.8001L69.4659 25.4473C69.189 24.6606 68.8105 23.9582 68.3302 23.3401C67.8503 22.7033 67.3058 22.1695 66.6962 21.7387C66.1055 21.3079 65.4592 20.9801 64.7573 20.7553C64.0558 20.5306 63.3354 20.4182 62.5968 20.4182C61.5629 20.4182 60.5842 20.6336 59.6611 21.0644C58.7562 21.4952 57.962 22.1039 57.279 22.8906C56.6142 23.6586 56.0878 24.5764 55.7002 25.6442C55.3125 26.7117 55.1186 27.8917 55.1186 29.184C55.1186 30.2328 55.3125 31.2164 55.7002 32.1343C56.0878 33.0519 56.6142 33.8575 57.279 34.5502C57.962 35.2434 58.7562 35.7866 59.6611 36.1798C60.5842 36.5733 61.5629 36.7698 62.5968 36.7698C63.3354 36.7698 64.0463 36.667 64.7297 36.461C65.413 36.255 66.0499 35.9646 66.6409 35.5898C67.2502 35.1966 67.7857 34.7282 68.2474 34.185C68.7273 33.6231 69.1153 33.0051 69.4106 32.3307L74.95 37.9781C74.2485 38.9897 73.4359 39.898 72.5128 40.7032C71.6078 41.5088 70.62 42.1923 69.5491 42.7543C68.4966 43.3163 67.3795 43.7379 66.1977 44.0187C65.0345 44.3183 63.8342 44.4682 62.5968 44.4682C60.5105 44.4682 58.544 44.0747 56.6974 43.2883C54.8693 42.4827 53.2629 41.3872 51.878 40.0008C50.5113 38.6149 49.4313 36.9945 48.6371 35.1402C47.8434 33.2859 47.4463 31.3007 47.4463 29.184C47.4463 26.8801 47.8434 24.7262 48.6371 22.722C49.4313 20.7179 50.5113 18.9759 51.878 17.4962C53.2629 15.9978 54.8693 14.8177 56.6974 13.9561C58.544 13.0945 60.5105 12.6637 62.5968 12.6637C63.8342 12.6637 65.0436 12.8229 66.2253 13.1414C67.4256 13.4598 68.5613 13.9281 69.6322 14.5462C70.7218 15.1455 71.7186 15.8854 72.6236 16.7657C73.5467 17.6461 74.3408 18.6575 75.0056 19.8001ZM86.334 43.9063H78.717V1.84684H86.334V28.3693L97.6068 13.8719H106.304L96.4716 26.4025L106.304 43.9063H97.6068L91.5966 32.9771L86.334 40.0572V43.9063ZM118.214 5.63977C118.214 6.35154 118.076 7.01648 117.799 7.63458C117.54 8.25271 117.18 8.79589 116.719 9.26415C116.257 9.7137 115.712 10.0789 115.084 10.3599C114.475 10.6221 113.82 10.7532 113.118 10.7532C112.416 10.7532 111.751 10.6221 111.124 10.3599C110.514 10.0789 109.979 9.7137 109.517 9.26415C109.074 8.79589 108.714 8.25271 108.437 7.63458C108.179 7.01648 108.049 6.35154 108.049 5.63977C108.049 4.94676 108.179 4.29118 108.437 3.67309C108.714 3.03623 109.074 2.49305 109.517 2.04351C109.979 1.57525 110.514 1.21002 111.124 0.947791C111.751 0.666841 112.416 0.526367 113.118 0.526367C113.82 0.526367 114.475 0.666841 115.084 0.947791C115.712 1.21002 116.257 1.57525 116.719 2.04351C117.18 2.49305 117.54 3.03623 117.799 3.67309C118.076 4.29118 118.214 4.94676 118.214 5.63977ZM116.912 43.9063H109.296V13.8157H116.912V43.9063ZM137.575 43.9063C135.747 43.9063 134.03 43.5599 132.423 42.8667C130.817 42.1551 129.404 41.1904 128.185 39.9728C126.985 38.7365 126.034 37.3037 125.333 35.6742C124.649 34.0447 124.308 32.3027 124.308 30.4484V21.5139H120.624V13.8719H124.308V1.84684H131.842V13.8719H143.308V21.5139H131.842V30.4484C131.842 31.2539 131.989 32.0123 132.285 32.7243C132.58 33.4171 132.986 34.0259 133.503 34.5502C134.021 35.075 134.63 35.4962 135.331 35.8146C136.033 36.1146 136.781 36.2642 137.575 36.2642H143.308V43.9063H137.575ZM170.729 43.9063H145.995L158.487 21.5139H145.995V13.8719H170.729L158.238 36.2642H170.729V43.9063Z" fill="#1D4ED8"/>
</svg>
