<svg width="80" height="27" viewBox="0 0 80 27" fill="none" xmlns="http://www.w3.org/2000/svg">
<path d="M4.26399 2.60089C4.26399 3.21925 4.25199 3.94464 4.22799 4.77706C4.20399 5.58569 4.17999 6.20406 4.15599 6.63216C4.08399 7.8451 4.04799 9.05805 4.04799 10.271C4.04799 11.1748 4.08399 12.1142 4.15599 13.0893C4.89999 12.0191 5.70399 11.2342 6.56799 10.7348C7.43199 10.2353 8.47599 9.9856 9.69999 9.9856C10.588 9.9856 11.416 10.378 12.184 11.1629C12.952 11.9477 13.444 12.8634 13.66 13.9098C13.732 14.8374 13.768 15.9671 13.768 17.299C13.768 18.1552 13.816 19.273 13.912 20.6524C13.96 21.1756 14.092 21.6632 14.308 22.1151C14.548 22.567 14.884 22.7929 15.316 22.7929C15.532 22.7929 15.7 22.781 15.82 22.7572C15.964 22.7334 16.096 22.7215 16.216 22.7215C16.552 22.7215 16.78 22.8048 16.9 22.9713C17.044 23.1378 17.116 23.3756 17.116 23.6848C17.116 24.2556 16.828 24.6837 16.252 24.9691C15.676 25.2545 15.148 25.3972 14.668 25.3972C12.94 25.3972 11.752 24.6837 11.104 23.2567C10.744 22.448 10.516 21.4016 10.42 20.1173C10.324 18.8092 10.276 17.2871 10.276 15.5509C10.276 13.8385 9.68799 12.9823 8.51199 12.9823C7.86399 12.9823 7.20399 13.3272 6.53199 14.0169C5.88399 14.6828 5.34399 15.5747 4.91199 16.6925C4.47999 17.7865 4.26399 18.9281 4.26399 20.1173L4.29999 23.8275C4.29999 24.3507 4.09599 24.7431 3.68799 25.0047C3.27999 25.2426 2.89599 25.3615 2.53599 25.3615C2.00799 25.3615 1.52799 25.2069 1.09599 24.8977C0.663987 24.5648 0.447987 24.1961 0.447987 23.7918C0.615987 22.0081 0.699987 19.0232 0.699987 14.8374C0.699987 14.0763 0.639987 11.258 0.519987 6.38243L0.411987 3.10034C0.411987 2.57711 0.651987 2.12522 1.13199 1.74469C1.61199 1.34037 2.15199 1.13822 2.75199 1.13822C3.27999 1.13822 3.66399 1.25713 3.90399 1.49497C4.14399 1.7328 4.26399 2.10144 4.26399 2.60089ZM21.6151 2.31549C22.4551 2.38684 23.1871 2.61278 23.8111 2.99331C24.4351 3.35006 24.7471 3.89708 24.7471 4.63436C24.7471 5.18138 24.4831 5.62137 23.9551 5.95433C23.4511 6.26351 22.8391 6.41811 22.1191 6.41811C21.4231 6.41811 20.9431 6.23973 20.6791 5.88298C20.4151 5.52623 20.2831 5.15759 20.2831 4.77706C20.2831 4.06356 20.3551 3.46898 20.4991 2.99331C20.6671 2.51765 21.0391 2.29171 21.6151 2.31549ZM24.4951 18.1195V19.1541C24.4951 20.0816 24.5191 20.9616 24.5671 21.794C24.6391 22.6026 24.7231 23.4232 24.8191 24.2556C24.7951 24.4934 24.6151 24.7431 24.2791 25.0047C23.9431 25.2426 23.6431 25.3615 23.3791 25.3615C22.9231 25.3615 22.4551 25.2783 21.9751 25.1118C21.5191 24.9215 21.2431 24.6956 21.1471 24.4339C21.0031 23.6729 20.9311 22.9951 20.9311 22.4005C20.9311 20.4502 20.8711 18.2622 20.7511 15.8363C20.6551 13.6958 20.6071 12.1974 20.6071 11.3412C20.6071 10.9131 20.8231 10.5445 21.2551 10.2353C21.6871 9.92614 22.1431 9.77155 22.6231 9.77155C23.3191 9.77155 23.7991 9.92614 24.0631 10.2353C24.3511 10.5445 24.4951 11.0321 24.4951 11.698V18.1195ZM36.906 4.20626C36.186 4.20626 35.742 4.80084 35.574 5.99001C35.406 7.60727 35.322 8.83211 35.322 9.66453C35.802 9.71209 36.306 9.73588 36.834 9.73588C37.17 9.73588 37.602 9.71209 38.13 9.66453L39.066 9.62885C39.546 9.62885 39.906 9.71209 40.146 9.87858C40.386 10.0451 40.506 10.3186 40.506 10.6991C40.506 11.2223 40.326 11.6742 39.966 12.0547C39.63 12.4115 39.234 12.5899 38.778 12.5899C37.05 12.5899 35.886 12.6731 35.286 12.8396C35.286 14.2904 35.358 16.3476 35.502 19.0114L35.574 20.7594L35.718 23.5421C35.766 24.2318 35.694 24.7193 35.502 25.0047C35.334 25.2664 34.962 25.3972 34.386 25.3972C33.33 25.3972 32.646 24.7669 32.334 23.5064C32.142 22.5788 31.986 21.2827 31.866 19.6178C31.746 17.953 31.686 16.4665 31.686 15.1585C31.686 14.4687 31.722 13.6839 31.794 12.8039C31.746 12.7801 31.614 12.7682 31.398 12.7682C31.182 12.7682 31.026 12.7801 30.93 12.8039C30.21 12.8515 29.682 12.8753 29.346 12.8753C29.13 12.8753 28.914 12.7326 28.698 12.4472C28.482 12.138 28.374 11.7693 28.374 11.3412C28.374 11.1034 28.458 10.8894 28.626 10.6991C28.794 10.485 28.998 10.3305 29.238 10.2353C29.598 10.0451 30.114 9.94992 30.786 9.94992L31.866 9.9856C31.866 6.60837 32.25 4.26572 33.018 2.95764C33.738 1.72091 34.926 1.10254 36.582 1.10254C37.542 1.10254 38.418 1.34037 39.21 1.81604C39.546 2.03009 39.798 2.29171 39.966 2.60089C40.158 2.91007 40.254 3.20736 40.254 3.49276C40.254 3.84951 40.11 4.21815 39.822 4.59868C39.558 4.97922 39.15 5.16948 38.598 5.16948C38.382 5.16948 38.106 5.003 37.77 4.67003C37.65 4.55112 37.518 4.44409 37.374 4.34896C37.23 4.25383 37.074 4.20626 36.906 4.20626ZM47.5923 19.6892C47.5923 20.5929 47.7243 21.2946 47.9883 21.794C48.2763 22.2697 48.6363 22.5075 49.0683 22.5075C49.3083 22.5075 49.5363 22.4956 49.7523 22.4718C49.9683 22.4243 50.1843 22.4005 50.4003 22.4005C50.6403 22.4005 50.8443 22.5194 51.0123 22.7572C51.2043 22.9951 51.3003 23.2567 51.3003 23.5421C51.3003 24.1129 51.0243 24.5648 50.4723 24.8977C49.9443 25.2069 49.2243 25.3615 48.3123 25.3615C47.6643 25.3615 47.0043 25.1712 46.3323 24.7907C45.6843 24.3864 45.1443 23.768 44.7123 22.9356C44.2803 22.0794 44.0643 21.021 44.0643 19.7605C44.0643 17.0492 44.1123 14.7541 44.2083 12.8753C44.3283 10.6396 44.3883 7.82132 44.3883 4.42031C44.3883 3.35006 44.4483 2.60089 44.5683 2.17279C44.7123 1.83982 44.9403 1.5901 45.2523 1.42361C45.5883 1.23335 45.9363 1.13822 46.2963 1.13822C46.6563 1.13822 46.9683 1.19767 47.2323 1.31659C47.5203 1.43551 47.7123 1.62577 47.8083 1.88739C47.9043 2.17279 47.9643 2.45819 47.9883 2.74359C48.0363 3.0052 48.0603 3.38574 48.0603 3.88519C48.0603 4.8603 48.0243 5.79974 47.9523 6.70351C47.9043 7.79754 47.8803 8.59428 47.8803 9.09373C47.6883 13.2796 47.5923 16.8114 47.5923 19.6892ZM56.0917 2.31549C56.9317 2.38684 57.6637 2.61278 58.2877 2.99331C58.9117 3.35006 59.2237 3.89708 59.2237 4.63436C59.2237 5.18138 58.9597 5.62137 58.4317 5.95433C57.9277 6.26351 57.3157 6.41811 56.5957 6.41811C55.8997 6.41811 55.4197 6.23973 55.1557 5.88298C54.8917 5.52623 54.7597 5.15759 54.7597 4.77706C54.7597 4.06356 54.8317 3.46898 54.9757 2.99331C55.1437 2.51765 55.5157 2.29171 56.0917 2.31549ZM58.9717 18.1195V19.1541C58.9717 20.0816 58.9957 20.9616 59.0437 21.794C59.1157 22.6026 59.1997 23.4232 59.2957 24.2556C59.2957 24.541 59.1277 24.8026 58.7917 25.0404C58.4557 25.2545 58.1437 25.3615 57.8557 25.3615C57.3997 25.3615 56.9317 25.2783 56.4517 25.1118C55.9957 24.9215 55.7197 24.6956 55.6237 24.4339C55.4797 23.6729 55.4077 22.9951 55.4077 22.4005C55.4077 20.4502 55.3477 18.2622 55.2277 15.8363C55.1317 13.6958 55.0837 12.1974 55.0837 11.3412C55.0837 10.9131 55.2997 10.5445 55.7317 10.2353C56.1637 9.92614 56.6197 9.77155 57.0997 9.77155C57.7957 9.77155 58.2757 9.92614 58.5397 10.2353C58.8277 10.5445 58.9717 11.0321 58.9717 11.698V18.1195ZM76.1346 9.48615C76.6146 9.48615 76.9866 9.60507 77.2506 9.8429C77.5386 10.0569 77.6826 10.3305 77.6826 10.6634C77.6826 10.9013 77.6346 11.151 77.5386 11.4126C77.4666 11.6504 77.3826 11.9002 77.2866 12.1618C76.7346 13.4461 75.5706 15.2417 73.7946 17.5487C75.6186 19.8794 77.0946 21.3778 78.2226 22.0437C78.3186 22.0913 78.4986 22.1745 78.7626 22.2935C79.0266 22.4124 79.2306 22.5551 79.3746 22.7215C79.5426 22.888 79.6266 23.0783 79.6266 23.2923C79.6266 23.8156 79.4226 24.2437 79.0146 24.5766C78.6306 24.8858 78.1626 25.0404 77.6106 25.0404C76.6746 25.0404 75.6546 24.5291 74.5506 23.5064C73.4466 22.4599 72.5106 21.3659 71.7426 20.2243C71.1906 21.0567 70.5546 21.8891 69.8346 22.7215C69.1386 23.5302 68.4906 24.2199 67.8906 24.7907C67.6506 25.0523 67.3626 25.2545 67.0266 25.3972C66.7146 25.5399 66.4026 25.6112 66.0906 25.6112C65.6586 25.6112 65.2746 25.5161 64.9386 25.3258C64.6026 25.1356 64.4346 24.8026 64.4346 24.3269C64.4346 24.208 64.5186 24.0177 64.6866 23.7561C64.8546 23.4707 64.9506 23.3042 64.9746 23.2567C65.2626 22.7572 65.6466 22.2459 66.1266 21.7227C66.6066 21.1756 66.9066 20.8308 67.0266 20.6881C67.3146 20.3313 67.6266 19.9865 67.9626 19.6535C68.1546 19.4395 68.4426 19.1065 68.8266 18.6546C69.2106 18.2027 69.4746 17.846 69.6186 17.5844L68.3586 15.872C67.7586 15.1822 67.2426 14.6352 66.8106 14.2309C66.3786 13.8028 66.0306 13.5888 65.7666 13.5888C65.3826 13.5888 65.0226 13.6958 64.6866 13.9098C64.3986 14.1001 64.1106 14.1952 63.8226 14.1952C63.5106 14.1952 63.2706 14.1239 63.1026 13.9812C62.9346 13.8147 62.8506 13.6363 62.8506 13.4461C62.8506 12.6374 63.1746 11.9477 63.8226 11.3769C64.4706 10.7823 65.2866 10.485 66.2706 10.485C67.2066 10.485 68.0346 10.8061 68.7546 11.4483C69.4986 12.0666 70.2306 12.8991 70.9506 13.9455C71.0466 14.0406 71.1546 14.1952 71.2746 14.4093C71.3946 14.6233 71.5146 14.8017 71.6346 14.9444C71.8986 14.5639 72.3786 13.8266 73.0746 12.7326C73.8186 11.4245 74.2626 10.6753 74.4066 10.485C74.9106 9.81912 75.4866 9.48615 76.1346 9.48615Z" fill="#D00707"/>
</svg>
