<svg width="24" height="25" viewBox="0 0 24 25" fill="none" xmlns="http://www.w3.org/2000/svg">
<path d="M8.50997 20.4996H8.42997C6.81833 20.4856 5.22999 20.1166 3.77997 19.4194C3.51324 19.2953 3.29363 19.0898 3.15327 18.833C3.01292 18.5762 2.9592 18.2817 2.99997 17.9924C3.04431 17.7013 3.18036 17.4314 3.38868 17.2214C3.59699 17.0114 3.86694 16.872 4.15997 16.8231C5.05858 16.7043 5.92306 16.4041 6.69997 15.9411C5.35113 14.8961 4.31272 13.5089 3.69479 11.9265C3.07686 10.3442 2.90242 8.62562 3.18997 6.95301C3.22896 6.68808 3.34393 6.43982 3.52122 6.23779C3.6985 6.03575 3.93063 5.88845 4.18997 5.8134C4.44228 5.73487 4.71232 5.73152 4.96654 5.80375C5.22076 5.87598 5.44797 6.02061 5.61997 6.21969C6.20397 6.97856 6.93786 7.61157 7.77687 8.08011C8.61589 8.54864 9.54242 8.84288 10.5 8.94487C10.5457 7.77736 11.052 6.67427 11.91 5.87285C12.3384 5.46633 12.8441 5.14837 13.3978 4.93749C13.9514 4.7266 14.5419 4.62702 15.1348 4.64455C15.7276 4.66207 16.3111 4.79635 16.8511 5.03956C17.391 5.28276 17.8768 5.63004 18.28 6.06114C18.385 6.15317 18.5155 6.21182 18.6546 6.22949C18.7937 6.24716 18.9349 6.22303 19.06 6.16024C19.2984 6.0488 19.5639 6.00685 19.8255 6.03928C20.0871 6.07172 20.3339 6.1772 20.5373 6.34341C20.7407 6.50963 20.8922 6.72973 20.9741 6.97804C21.056 7.22635 21.065 7.49262 21 7.74579C20.7693 8.68733 20.3323 9.56699 19.72 10.3223C19.585 13.1414 18.3308 15.7932 16.2309 17.6997C14.131 19.6062 11.3556 20.6126 8.50997 20.4996ZM8.50997 18.5176H8.58997C9.75264 18.5573 10.9117 18.3678 11.9999 17.9602C13.0881 17.5526 14.0839 16.935 14.9294 16.1432C15.7749 15.3513 16.4535 14.4011 16.9256 13.3474C17.3978 12.2938 17.6542 11.1578 17.68 10.0052C17.6965 9.68933 17.8279 9.39009 18.05 9.16288C18.2939 8.85691 18.5019 8.52445 18.67 8.17191C18.3097 8.17259 17.9534 8.09791 17.6242 7.95276C17.2951 7.80761 17.0006 7.59526 16.76 7.32958C16.5286 7.10221 16.2537 6.92286 15.9515 6.80205C15.6493 6.68124 15.3258 6.62138 15 6.62599C14.6709 6.61756 14.3433 6.67362 14.0362 6.79096C13.729 6.9083 13.4482 7.08461 13.21 7.30976C12.8886 7.61201 12.6529 7.99261 12.5265 8.41347C12.4002 8.83434 12.3876 9.28071 12.49 9.70791L12.75 10.8376L11.58 10.9169C10.3811 11.0138 9.17523 10.8513 8.04598 10.4406C6.91673 10.0299 5.89105 9.38095 5.03997 8.53857C5.00347 9.84308 5.33277 11.1321 5.99126 12.2622C6.64976 13.3924 7.61164 14.3194 8.76997 14.9402L9.71997 15.4754L9.08997 16.3672C8.40866 17.2527 7.47515 17.9154 6.40997 18.2699C7.09328 18.4396 7.79554 18.5229 8.49997 18.5176H8.50997Z" fill="#6E7191"/>
</svg>
